<svg enable-background="new 0 0 105 43" height="43" viewBox="0 0 105 43" width="105" xmlns="http://www.w3.org/2000/svg"><path d="m0 0h105v43h-105z" fill="none"/><path d="m1.7381 23.8706c.1826 1.2534 1.3779 2.0503 3.0796 2.0503 1.6104 0 2.7974-.8716 2.7974-2.0586 0-1.021-.7471-1.6685-2.3989-2.0835l-1.5356-.3984c-2.1666-.5479-3.1046-1.5274-3.1046-3.229 0-2.0337 1.7017-3.4116 4.2334-3.4116 2.3159 0 4.0425 1.3779 4.167 3.312h-1.5024c-.2075-1.2285-1.2202-1.959-2.7144-1.959-1.5937 0-2.6479.7969-2.6479 2.0088 0 .938.6558 1.4775 2.3076 1.9009l1.2534.332c2.4819.6226 3.478 1.5854 3.478 3.3452 0 2.1997-1.7349 3.6025-4.4741 3.6025-2.54 0-4.2915-1.3447-4.4492-3.4116zm8.8897-1.3447c0-2.8804 1.5771-4.6318 4.1255-4.6318s4.1255 1.7515 4.1255 4.6318c0 2.8721-1.5771 4.6318-4.1255 4.6318s-4.1255-1.7598-4.1255-4.6318zm6.7734 0c0-2.125-.9546-3.3452-2.6479-3.3452s-2.6479 1.2202-2.6479 3.3452c0 2.1167.9546 3.3452 2.6479 3.3452s2.6479-1.2285 2.6479-3.3452zm-3.2622-5.7193 1.4692-2.8223h1.71l-1.9175 2.8223zm6.6899-2.3076h1.4277v12.501h-1.4277zm3.378 8.0269c0-2.8804 1.5771-4.6318 4.1255-4.6318s4.1255 1.7515 4.1255 4.6318c0 2.8721-1.5771 4.6318-4.1255 4.6318s-4.1255-1.7598-4.1255-4.6318zm6.7734 0c0-2.125-.9546-3.3452-2.6479-3.3452s-2.6479 1.2202-2.6479 3.3452c0 2.1167.9546 3.3452 2.6479 3.3452s2.6479-1.2285 2.6479-3.3452zm15.1231 2.1582c-.415 1.5273-1.8096 2.4736-3.7686 2.4736-2.4819 0-4.0342-1.793-4.0342-4.6235 0-2.814 1.5771-4.6401 4.0342-4.6401 2.4155 0 3.8848 1.7183 3.8848 4.499v.5479h-6.4331v.0664c.0747 1.7681 1.0625 2.8887 2.5815 2.8887 1.1538 0 1.9341-.4233 2.3076-1.2119h1.4278zm-6.3169-2.897h4.9307c-.0332-1.5854-.9795-2.6313-2.3989-2.6313-1.4278 0-2.4239 1.0459-2.5318 2.6313zm8.3003-3.7353h1.3613v1.4111h.1328c.4482-.9878 1.3198-1.5688 2.6895-1.5688 2.0088 0 3.1294 1.187 3.1294 3.312v5.7939h-1.4278v-5.4453c0-1.6104-.6807-2.374-2.1084-2.374s-2.3491.9546-2.3491 2.5234v5.2959h-1.4277zm20.7348 5.52h-4.7646l-1.2036 3.4282h-1.5688l4.416-11.978h1.4775l4.416 11.978h-1.5688zm-4.3247-1.27h3.8848l-1.876-5.3457h-.1328zm16.7588.2241c0 2.7974-1.4858 4.6318-3.7603 4.6318-1.2783 0-2.3076-.5562-2.7974-1.5024h-.1328v4.333h-1.4277v-11.9365h1.3613v1.4941h.1328c.5728-1.0293 1.6436-1.6519 2.8638-1.6519 2.2828 0 3.7603 1.8179 3.7603 4.6319zm-1.4775 0c0-2.0918-.9795-3.3452-2.6147-3.3452-1.6187 0-2.6396 1.2866-2.6396 3.3452 0 2.0503 1.021 3.3452 2.6313 3.3452 1.6435 0 2.623-1.2534 2.623-3.3452zm11.4629 0c0 2.7974-1.4858 4.6318-3.7603 4.6318-1.2783 0-2.3076-.5562-2.7974-1.5024h-.1328v4.333h-1.4277v-11.9365h1.3613v1.4941h.1328c.5728-1.0293 1.6436-1.6519 2.8638-1.6519 2.2827 0 3.7603 1.8179 3.7603 4.6319zm-1.4776 0c0-2.0918-.9795-3.3452-2.6147-3.3452-1.6187 0-2.6396 1.2866-2.6396 3.3452 0 2.0503 1.021 3.3452 2.6313 3.3452 1.6435 0 2.623-1.2534 2.623-3.3452zm3.4278-8.0269h1.4277v12.501h-1.4277zm11.1806 10.1851c-.415 1.5273-1.8096 2.4736-3.7686 2.4736-2.4819 0-4.0342-1.793-4.0342-4.6235 0-2.814 1.5771-4.6401 4.0342-4.6401 2.4155 0 3.8848 1.7183 3.8848 4.499v.5479h-6.4331v.0664c.0747 1.7681 1.0625 2.8887 2.5815 2.8887 1.1538 0 1.9341-.4233 2.3076-1.2119h1.4278zm-6.3169-2.897h4.9307c-.0332-1.5854-.9795-2.6313-2.3989-2.6313-1.4278 0-2.4239 1.0459-2.5318 2.6313z" fill="#fff"/></svg>