<svg enable-background="new 0 0 77 43" height="43" viewBox="0 0 77 43" width="77" xmlns="http://www.w3.org/2000/svg"><path d="m0 0h77v43h-77z" fill="none"/><path d="m4.7499 27v-10.6333h-3.8599v-1.3447h9.2139v1.3447h-3.8599v10.6333zm10.749 0-4.416-11.978h1.5688l3.5195 10.0439h.1328l3.5195-10.0439h1.5688l-4.4159 11.978zm11.9853 3.1875v-1.2202c.1743.0332.3984.0415.5977.0415.8218 0 1.27-.3901 1.6436-1.4692l.166-.5312-3.312-8.9565h1.5439l2.457 7.3628h.1328l2.4487-7.3628h1.519l-3.4946 9.4961c-.7637 2.0752-1.4775 2.6895-3.063 2.6895-.1908-.0002-.4398-.0168-.6391-.05zm12.8736-9.1724c0-3.8682 2.0254-6.2754 5.2793-6.2754 2.5234 0 4.4907 1.5854 4.8477 3.8931h-1.519c-.3984-1.5439-1.6768-2.5151-3.3286-2.5151-2.2993 0-3.7437 1.8926-3.7437 4.8975s1.4443 4.8892 3.752 4.8892c1.6685 0 2.9385-.855 3.3203-2.2412h1.519c-.3984 2.1997-2.291 3.6191-4.8394 3.6191-3.2539-.0001-5.2876-2.4073-5.2876-6.2672zm11.5459 3.4781c0-1.6021 1.1787-2.5234 3.2622-2.6479l2.5815-.1577v-.8136c0-1.104-.689-1.71-2.0254-1.71-1.0708 0-1.8179.4067-2.0171 1.1123h-1.4443c.1909-1.436 1.6021-2.3823 3.5112-2.3823 2.1831 0 3.4033 1.1206 3.4033 2.98v6.126h-1.3613v-1.3198h-.1328c-.5811.9546-1.5605 1.4775-2.7559 1.4775-1.7348 0-3.0214-1.0293-3.0214-2.6645zm5.8437-.8301v-.8218l-2.4072.1577c-1.3613.0913-1.959.5645-1.959 1.4609 0 .9131.772 1.4443 1.8096 1.4443 1.4692.0001 2.5566-.9628 2.5566-2.2411zm6.8228-5.7691c1.876 0 3.1792.9297 3.3701 2.3989h-1.4111c-.1909-.7139-.8882-1.187-1.9673-1.187-1.0625 0-1.8926.5396-1.8926 1.3364 0 .6143.498.9961 1.5522 1.2534l1.3779.332c1.6851.4067 2.4985 1.1372 2.4985 2.4238 0 1.6021-1.5522 2.7061-3.5859 2.7061-1.9922 0-3.3618-.9546-3.5195-2.4404h1.4692c.2407.7554.9546 1.2368 2.1001 1.2368 1.2036 0 2.0669-.5728 2.0669-1.3945 0-.6143-.4648-1.0293-1.4194-1.2617l-1.5356-.3735c-1.6768-.4067-2.4404-1.1289-2.4404-2.4238 0-1.4859 1.436-2.6065 3.3369-2.6065zm4.8637 6.5992c0-1.6021 1.1787-2.5234 3.2622-2.6479l2.5815-.1577v-.8136c0-1.104-.689-1.71-2.0254-1.71-1.0708 0-1.8179.4067-2.0171 1.1123h-1.4443c.1909-1.436 1.6021-2.3823 3.5112-2.3823 2.1831 0 3.4033 1.1206 3.4033 2.98v6.126h-1.3613v-1.3198h-.1328c-.5811.9546-1.5605 1.4775-2.7559 1.4775-1.7347 0-3.0214-1.0293-3.0214-2.6645zm5.8438-.8301v-.8218l-2.4072.1577c-1.3613.0913-1.959.5645-1.959 1.4609 0 .9131.772 1.4443 1.8096 1.4443 1.4692.0001 2.5566-.9628 2.5566-2.2411z" fill="#fff"/></svg>