<svg enable-background="new 0 0 60 43" height="43" viewBox="0 0 60 43" width="60" xmlns="http://www.w3.org/2000/svg"><path d="m0 0h60v43h-60z" fill="none"/><path d="m1.5107 23.8628c.1826 1.2529 1.3779 2.0498 3.0796 2.0498 1.6104 0 2.7974-.8721 2.7974-2.0586 0-1.0205-.7471-1.6689-2.3989-2.083l-1.5356-.3984c-2.1665-.5488-3.1045-1.5273-3.1045-3.2295 0-2.0342 1.7017-3.4111 4.2334-3.4111 2.3159 0 4.0425 1.377 4.167 3.3115h-1.5025c-.2075-1.2285-1.2202-1.959-2.7144-1.959-1.5938 0-2.6479.7969-2.6479 2.0088 0 .9375.6558 1.4775 2.3076 1.9004l1.2534.332c2.4819.623 3.478 1.5859 3.478 3.3457 0 2.1992-1.7349 3.6025-4.4741 3.6025-2.54 0-4.2915-1.3447-4.4492-3.4111zm8.8897-1.3457c0-2.8799 1.5771-4.6309 4.1255-4.6309s4.1255 1.751 4.1255 4.6309c0 2.873-1.5771 4.6328-4.1255 4.6328s-4.1255-1.7597-4.1255-4.6328zm6.7734 0c0-2.125-.9546-3.3447-2.6479-3.3447s-2.6479 1.2197-2.6479 3.3447c0 2.1172.9546 3.3457 2.6479 3.3457s2.6479-1.2285 2.6479-3.3457zm11.4629 0c0 2.7979-1.4858 4.6328-3.7603 4.6328-1.2783 0-2.3076-.5566-2.7974-1.5029h-.1328v4.333h-1.4277v-11.9365h1.3613v1.4941h.1328c.5728-1.0293 1.6436-1.6514 2.8638-1.6514 2.2828 0 3.7603 1.8174 3.7603 4.6309zm-1.4775 0c0-2.0918-.9795-3.3447-2.6147-3.3447-1.6187 0-2.6396 1.2861-2.6396 3.3447 0 2.0508 1.021 3.3457 2.6313 3.3457 1.6435 0 2.623-1.2539 2.623-3.3457zm2.8965 0c0-2.8799 1.5771-4.6309 4.1255-4.6309s4.1255 1.751 4.1255 4.6309c0 2.873-1.5771 4.6328-4.1255 4.6328s-4.1255-1.7597-4.1255-4.6328zm6.7734 0c0-2.125-.9546-3.3447-2.6479-3.3447s-2.6479 1.2197-2.6479 3.3447c0 2.1172.9546 3.3457 2.6479 3.3457s2.6479-1.2285 2.6479-3.3457zm3.3447-4.4736h1.3613v1.3281h.1328c.2656-.8721 1.2949-1.4854 2.4819-1.4854.2324 0 .5312.0156.7139.041v1.4277c-.1162-.0332-.6309-.083-.9131-.083-1.3613 0-2.3491.9131-2.3491 2.1748v5.5449h-1.4277zm8.6241-2.3155v2.3154h1.9921v1.1953h-1.9922v5.0635c0 1.0547.3984 1.502 1.3281 1.502.2573 0 .3984-.0078.6641-.0332v1.2041c-.2822.0498-.5562.083-.8384.083-1.8428 0-2.5815-.6807-2.5815-2.3906v-5.4287h-1.4443v-1.1953h1.4443v-2.3155zm11.0063 8.9473c-.415 1.5273-1.8096 2.4746-3.7686 2.4746-2.4819 0-4.0342-1.793-4.0342-4.624 0-2.8135 1.5771-4.6396 4.0342-4.6396 2.4155 0 3.8848 1.7178 3.8848 4.498v.5488h-6.4331v.0664c.0747 1.7676 1.0625 2.8887 2.5815 2.8887 1.1538 0 1.9341-.4238 2.3076-1.2129zm-6.3169-2.8965h4.9307c-.0332-1.5859-.9795-2.6309-2.3989-2.6309-1.4278.0001-2.4239 1.045-2.5318 2.6309z" fill="#fff"/></svg>