<svg enable-background="new 0 0 52 43" height="43" viewBox="0 0 52 43" width="52" xmlns="http://www.w3.org/2000/svg"><path d="m0 0h52v43h-52z" fill="none"/><path d="m4.7594 26.987v-10.6328h-3.8594v-1.3447h9.2139v1.3447h-3.8604v10.6328zm6.6904-11.6709c0-.5479.4482-.9961.9961-.9961s.9961.4482.9961.9961-.4482.9961-.9961.9961-.9961-.4483-.9961-.9961zm.2822 2.7226h1.4277v8.9482h-1.4277zm11.1309 6.6329c-.415 1.5273-1.8096 2.4736-3.7686 2.4736-2.4824 0-4.0342-1.793-4.0342-4.624 0-2.8135 1.5771-4.6396 4.0342-4.6396 2.415 0 3.8848 1.7178 3.8848 4.499v.5479h-6.4336v.0664c.0752 1.7676 1.0625 2.8887 2.582 2.8887 1.1533 0 1.9336-.4238 2.3076-1.2119h1.4278zm-6.3174-2.8975h4.9307c-.0332-1.585-.9795-2.6309-2.3984-2.6309-1.4278 0-2.4239 1.0459-2.5323 2.6309zm8.3008-3.7354h1.3613v1.4111h.1328c.4482-.9873 1.3193-1.5684 2.6895-1.5684 2.0088 0 3.1289 1.1865 3.1289 3.3115v5.7939h-1.4277v-5.4453c0-1.6104-.6807-2.374-2.1084-2.374s-2.3486.9551-2.3486 2.5234v5.2959h-1.4277v-8.9481zm9.0967 4.4747c0-2.8057 1.4863-4.6318 3.7607-4.6318 1.2451 0 2.2988.5889 2.8057 1.5684h.124v-4.964h1.4277v12.501h-1.3613v-1.4277h-.1328c-.5645.9961-1.627 1.5859-2.8633 1.5859-2.291 0-3.7607-1.8184-3.7607-4.6318zm1.4775 0c0 2.0918.9795 3.3447 2.6152 3.3447 1.627 0 2.6309-1.2783 2.6309-3.3447 0-2.0508-1.0127-3.3457-2.6309-3.3457-1.6269 0-2.6152 1.2617-2.6152 3.3457zm8.5078 1.9668c0-1.6016 1.1787-2.5234 3.2627-2.6475l2.5811-.1582v-.8135c0-1.1035-.6885-1.71-2.0254-1.71-1.0703 0-1.8174.4072-2.0166 1.1123h-1.4443c.1904-1.4355 1.6016-2.3818 3.5107-2.3818 2.1836 0 3.4033 1.1201 3.4033 2.9795v6.126h-1.3613v-1.3193h-.1328c-.5811.9541-1.5605 1.4775-2.7559 1.4775-1.7344 0-3.0215-1.0293-3.0215-2.665zm5.8438-.8301v-.8213l-2.4072.1572c-1.3613.0918-1.959.5645-1.959 1.4609 0 .9131.7725 1.4443 1.8096 1.4443 1.4697.0001 2.5566-.9628 2.5566-2.2411z" fill="#fff"/></svg>