<svg enable-background="new 0 0 76 44" height="44" viewBox="0 0 76 44" width="76" xmlns="http://www.w3.org/2000/svg"><path d="m0 0h76v44h-76z" fill="none"/><path d="m1.3243 23.791c.1289.8848.9727 1.4473 2.1738 1.4473 1.1367 0 1.9746-.6152 1.9746-1.4531 0-.7207-.5273-1.1777-1.6934-1.4707l-1.084-.2812c-1.5293-.3867-2.1914-1.0781-2.1914-2.2793 0-1.4355 1.2012-2.4082 2.9883-2.4082 1.6348 0 2.8535.9727 2.9414 2.3379h-1.0605c-.1465-.8672-.8613-1.3828-1.916-1.3828-1.125 0-1.8691.5625-1.8691 1.418 0 .6621.4629 1.043 1.6289 1.3418l.8848.2344c1.752.4395 2.4551 1.1191 2.4551 2.3613 0 1.5527-1.2246 2.543-3.1582 2.543-1.793 0-3.0293-.9492-3.1406-2.4082h1.0663zm6.4189-.9492c0-2.0332 1.1133-3.2695 2.9121-3.2695s2.9121 1.2363 2.9121 3.2695c0 2.0273-1.1133 3.2695-2.9121 3.2695s-2.9121-1.2422-2.9121-3.2695zm4.7813 0c0-1.5-.6738-2.3613-1.8691-2.3613s-1.8691.8613-1.8691 2.3613c0 1.4941.6738 2.3613 1.8691 2.3613s1.8691-.8672 1.8691-2.3613zm-2.3028-4.0371 1.0371-1.9922h1.207l-1.3535 1.9922zm4.8662-1.6289h1.0078v8.8242h-1.0078zm2.5283 5.666c0-2.0332 1.1133-3.2695 2.9121-3.2695s2.9121 1.2363 2.9121 3.2695c0 2.0273-1.1133 3.2695-2.9121 3.2695s-2.9121-1.2422-2.9121-3.2695zm4.7813 0c0-1.5-.6738-2.3613-1.8691-2.3613s-1.8691.8613-1.8691 2.3613c0 1.4941.6738 2.3613 1.8691 2.3613s1.8691-.8672 1.8691-2.3613zm10.9634 1.5234c-.293 1.0781-1.2773 1.7461-2.6602 1.7461-1.752 0-2.8477-1.2656-2.8477-3.2637 0-1.9863 1.1133-3.2754 2.8477-3.2754 1.7051 0 2.7422 1.2129 2.7422 3.1758v.3867h-4.541v.0469c.0527 1.248.75 2.0391 1.8223 2.0391.8145 0 1.3652-.2988 1.6289-.8555zm-4.459-2.0449h3.4805c-.0234-1.1191-.6914-1.8574-1.6934-1.8574-1.0078 0-1.7109.7383-1.7871 1.8574zm6.0029-2.6367h.9609v.9961h.0938c.3164-.6973.9316-1.1074 1.8984-1.1074 1.418 0 2.209.8379 2.209 2.3379v4.0898h-1.0078v-3.8438c0-1.1367-.4805-1.6758-1.4883-1.6758s-1.6582.6738-1.6582 1.7812v3.7384h-1.0078zm14.9243 3.8965h-3.3633l-.8496 2.4199h-1.1074l3.1172-8.4551h1.043l3.1172 8.4551h-1.1074zm-3.0527-.8965h2.7422l-1.3242-3.7734h-.0938zm11.9736.1582c0 1.9746-1.0488 3.2695-2.6543 3.2695-.9023 0-1.6289-.3926-1.9746-1.0605h-.0938v3.0586h-1.0078v-8.4258h.9609v1.0547h.0938c.4043-.7266 1.1602-1.166 2.0215-1.166 1.6114 0 2.6543 1.2832 2.6543 3.2695zm-1.0429 0c0-1.4766-.6914-2.3613-1.8457-2.3613-1.1426 0-1.8633.9082-1.8633 2.3613 0 1.4473.7207 2.3613 1.8574 2.3613 1.1602 0 1.8516-.8847 1.8516-2.3613zm8.2353 0c0 1.9746-1.0488 3.2695-2.6543 3.2695-.9023 0-1.6289-.3926-1.9746-1.0605h-.0938v3.0586h-1.0077v-8.4258h.9609v1.0547h.0938c.4043-.7266 1.1602-1.166 2.0215-1.166 1.6113 0 2.6542 1.2832 2.6542 3.2695zm-1.0429 0c0-1.4766-.6914-2.3613-1.8457-2.3613-1.1426 0-1.8633.9082-1.8633 2.3613 0 1.4473.7207 2.3613 1.8574 2.3613 1.1601 0 1.8516-.8847 1.8516-2.3613zm2.5634-5.666h1.0078v8.8242h-1.0078zm8.0366 7.1894c-.293 1.0781-1.2773 1.7461-2.6602 1.7461-1.752 0-2.8477-1.2656-2.8477-3.2637 0-1.9863 1.1133-3.2754 2.8477-3.2754 1.7051 0 2.7422 1.2129 2.7422 3.1758v.3867h-4.541v.0469c.0527 1.248.75 2.0391 1.8223 2.0391.8145 0 1.3652-.2988 1.6289-.8555zm-4.4589-2.0449h3.4805c-.0234-1.1191-.6914-1.8574-1.6934-1.8574-1.0078 0-1.711.7383-1.7871 1.8574z" fill="#fff"/></svg>